%
M48
M72
T01C0.6000
T02C0.8000
T03C0.8128
T04C1.0000
T05C1.1176
%
T01
X31281Y54295
X33821Y54295
X36361Y54295
X38901Y54295
X41441Y54295
X43981Y54295
X46521Y56835
X46521Y59375
X46521Y61915
X46521Y64455
X46521Y66995
X43981Y69535
X33821Y69535
X31281Y69535
X28741Y66995
X28741Y64455
X28741Y61915
X28741Y59375
X28741Y56835
T02
X18795Y54255
X18795Y64415
T03
X18539Y39530
X20571Y39530
X20411Y32895
X18379Y32895
T04
X28601Y48667
X27966Y51461
X36094Y40793
X41809Y31776
X39015Y29617
X39650Y26188
X44857Y31522
X47143Y28728
X46381Y23267
X48794Y37999
X51207Y39523
X43333Y45238
X37491Y65939
X36221Y71527
T05
X17975Y19095
X20515Y19095
X23055Y19095
X34865Y19095
X37405Y19095
X39945Y19095
X42485Y19095
X45025Y19095
X47565Y19095
M30
