%
M48
M72
T01C0.6000
T02C0.8000
T03C0.8128
T04C1.0000
T05C1.0160
T06C1.2000
T07C2.1000
T08C3.2000
%
T01
X74377Y52787
X76187Y49341
X79967Y48467
X83747Y49341
X85557Y52787
X85557Y57107
X85557Y61427
X83747Y64873
X79967Y65747
X76187Y64873
X74377Y61427
X74377Y57107
T02
X58885Y57107
X55329Y57107
X41867Y59647
X31707Y59647
X25357Y68537
X20277Y68537
X22817Y26627
X29167Y26627
X39327Y26627
X12657Y26627
X87587Y29167
X92667Y29167
X92667Y24087
X92667Y13927
X92667Y39327
X87587Y39327
T03
X67267Y39327
X67267Y36787
X67267Y34247
X67267Y31707
X67267Y29167
X59647Y29167
X59647Y31707
X59647Y34247
X59647Y36787
X59647Y39327
X59647Y41867
X59647Y44407
X59647Y46947
X67267Y46947
X67267Y44407
X67267Y41867
X44153Y68537
X42121Y68537
X35263Y68537
X33231Y68537
X19007Y44407
X16467Y44407
X13927Y44407
T04
X25357Y45423
X25103Y41613
X31961Y34755
X34755Y30437
X42375Y27897
X46947Y30945
X40343Y42629
X42375Y45169
X33993Y50757
X50249Y56345
X51265Y60409
X72855Y42375
X72855Y16721
T05
X77427Y29167
X77427Y35517
X50757Y36787
X45677Y36787
X48217Y41867
X53297Y68537
X55837Y68537
X58377Y68537
T06
X11387Y38057
X11387Y34557
T07
X16387Y19210
X16387Y15197
X16387Y11184
X26547Y11184
X26547Y15197
X26547Y19210
X36707Y19210
X36707Y15197
X36707Y11184
X46867Y11184
X46867Y15197
X46867Y19210
X67267Y19210
X67267Y15197
X67267Y11184
X79967Y11184
X79967Y15197
X79967Y19210
T08
X4957Y4957
X4957Y69957
X94957Y69957
X94957Y4957
M30
