%
M48
M72
T01C0.6000
T02C0.8000
T03C0.8128
T04C0.9000
T05C1.1176
T06C3.0000
%
T01
X21477Y48300
X24017Y48300
X26557Y48300
X29097Y48300
X31637Y48300
X34177Y48300
X36717Y50840
X36717Y53380
X36717Y55920
X36717Y58460
X36717Y61000
X34177Y63540
X24017Y63540
X21477Y63540
X18937Y61000
X18937Y58460
X18937Y55920
X18937Y53380
X18937Y50840
T02
X8990Y48260
X8990Y58420
T03
X8734Y33535
X10766Y33535
X10606Y26900
X8574Y26900
T04
X17018Y39878
X17018Y47879
X11430Y52324
X23114Y44831
X27178Y43942
X26289Y51816
X31623Y57150
X28702Y62103
X39116Y46228
X41148Y43053
X38735Y39624
X43180Y38989
X43942Y32893
X43561Y26924
X37846Y19939
X35814Y24511
X32766Y22352
X33528Y18669
X30226Y25019
X22479Y24003
X39370Y7620
X42291Y13081
T05
X37760Y13100
X35220Y13100
X32680Y13100
X30140Y13100
X27600Y13100
X25060Y13100
X13250Y13100
X10710Y13100
X8170Y13100
T06
X5000Y5000
X45000Y5000
X45000Y70000
X5000Y70000
M30
