%
M48
M72
T01C0.6000
T02C0.8000
T03C0.8128
T04C0.8400
T05C1.0160
T06C1.2000
T07C2.1000
T08C3.0000
%
T01
X71702Y52017
X73512Y48571
X77292Y47697
X81072Y48571
X82882Y52017
X82882Y56337
X82882Y60657
X81072Y64103
X77292Y64977
X73512Y64103
X71702Y60657
X71702Y56337
T02
X89992Y55067
X93167Y55067
X93167Y44907
X89992Y44907
X88087Y39192
X88087Y33477
X69672Y27127
X59512Y27127
X45542Y43002
X42367Y43002
X42367Y53162
X45542Y53162
X50622Y63449
X50622Y67005
X36652Y68402
X26492Y68402
X7442Y40462
X7442Y35382
T03
X16586Y32207
X18618Y32207
X16967Y40462
X16967Y43002
X16967Y45542
X55702Y44907
X55702Y47447
X55702Y49987
X55702Y52527
X55702Y55067
X63322Y55067
X63322Y52527
X63322Y49987
X63322Y47447
X63322Y44907
X63322Y42367
X63322Y39827
X63322Y37287
X55702Y37287
X55702Y39827
X55702Y42367
X17348Y10617
X15316Y10617
T04
X30429Y4902
X39954Y7823
X46050Y7823
X53670Y7823
X51130Y24079
X56337Y24968
X50368Y30937
X50368Y39573
X37160Y45669
T05
X30937Y55067
X25857Y55067
X28397Y60147
X16967Y23317
X16967Y20777
X16967Y18237
T06
X7442Y17277
X7442Y20777
T07
X27762Y20345
X27762Y16332
X27762Y12319
X37287Y12319
X37287Y16332
X37287Y20345
X46812Y20345
X46812Y16332
X46812Y12319
X56337Y12319
X56337Y16332
X56337Y20345
X70307Y20345
X70307Y16332
X70307Y12319
X81737Y12319
X81737Y16332
X81737Y20345
T08
X5457Y5457
X5457Y70457
X95457Y70457
X95457Y5457
M30
