%
M48
M72
T01C0.6000
T02C0.8000
T03C1.0000
T04C3.0000
%
T01
X14859Y10160
X16891Y10160
X16129Y31750
X18161Y31750
X16510Y40005
X16510Y42545
X16510Y45085
X6985Y40005
X6985Y34925
X41910Y43180
X45720Y43180
X45720Y53340
X41910Y53340
X50165Y62992
X50165Y66548
X36195Y67945
X26035Y67945
X71245Y60200
X73055Y63646
X76835Y64520
X80615Y63646
X82425Y60200
X82425Y55880
X82425Y51560
X80615Y48114
X76835Y47240
X73055Y48114
X71245Y51560
X71245Y55880
X89535Y54610
X92710Y54610
X92710Y44450
X89535Y44450
X69215Y26670
X59055Y26670
T02
X51435Y21590
X50800Y18415
X46355Y19888
X46355Y15875
X46355Y11862
X41275Y18288
X41910Y21463
X36830Y19888
X36830Y15875
X36830Y11862
X27305Y11862
X27305Y15875
X27305Y19888
X22860Y22860
X48387Y42672
X49911Y41275
X51435Y43180
X55245Y41910
X55245Y39370
X55245Y36830
X62865Y36830
X62865Y39370
X62865Y41910
X62865Y44450
X62865Y46990
X62865Y49530
X62865Y52070
X62865Y54610
X55245Y54610
X55245Y52070
X55245Y49530
X55245Y46990
X55245Y44450
X73787Y55753
X87630Y38735
X87630Y33020
X76835Y36830
X81280Y19888
X81280Y15875
X81280Y11862
X69850Y11862
X69850Y15875
X69850Y19888
X55880Y19888
X55880Y15875
X55880Y11862
X22606Y49149
X25400Y54610
X30480Y54610
X27940Y59690
T03
X16510Y22860
X16510Y20320
X16510Y17780
X6985Y16820
X6985Y20320
T04
X5000Y5000
X5000Y70000
X95000Y70000
X95000Y5000
M30
