%
M48
M72
T01C0.6000
T02C0.8000
T03C0.8128
T04C0.8400
T05C1.0160
T06C1.2000
T07C2.1000
T08C3.0000
%
T01
X71702Y52017
X73512Y48571
X77292Y47697
X81072Y48571
X82882Y52017
X82882Y56337
X82882Y60657
X81072Y64103
X77292Y64977
X73512Y64103
X71702Y60657
X71702Y56337
T02
X63322Y55067
X63322Y52527
X63322Y49987
X63322Y47447
X63322Y44907
X63322Y42367
X63322Y39827
X63322Y37287
X55702Y37287
X55702Y39827
X55702Y42367
X55702Y44907
X55702Y47447
X55702Y49987
X55702Y52527
X55702Y55067
X45542Y53162
X42367Y53162
X42367Y43002
X45542Y43002
X59512Y27127
X69672Y27127
X88087Y33477
X88087Y39192
X89992Y44907
X93167Y44907
X93167Y55067
X89992Y55067
X50622Y63449
X50622Y67005
X36652Y68402
X26492Y68402
X7442Y40462
X7442Y35382
T03
X16586Y32207
X18618Y32207
X16967Y40462
X16967Y43002
X16967Y45542
X17348Y10617
X15316Y10617
T04
X23444Y23317
X32080Y14300
X41605Y14300
X51130Y18364
X61163Y14300
X74625Y18364
X60909Y30429
X62687Y32207
X55702Y33223
X52654Y36779
X66370Y49352
X74752Y60655
X45796Y62179
X27000Y45542
X21285Y34747
T05
X16967Y23317
X16967Y20777
X16967Y18237
X25857Y55067
X30937Y55067
X28397Y60147
T06
X7442Y20777
X7442Y17277
T07
X27762Y16332
X27762Y12319
X37287Y12319
X37287Y16332
X37287Y20345
X27762Y20345
X46812Y20345
X46812Y16332
X46812Y12319
X56337Y12319
X56337Y16332
X56337Y20345
X70307Y20345
X70307Y16332
X70307Y12319
X81737Y12319
X81737Y16332
X81737Y20345
T08
X5457Y5457
X5457Y70457
X95457Y70457
X95457Y5457
M30
