%
M48
M72
T01C0.6000
T02C0.8000
T03C1.0000
T04C3.0000
T05C3.3020
%
T01
X22860Y26670
X22860Y31750
X25400Y55880
X25400Y58420
X25400Y60960
X46990Y60960
X46990Y64770
X50800Y64770
X50800Y74930
X46990Y74930
X50800Y88392
X50800Y91948
X42545Y92075
X32385Y92075
X64260Y81790
X66070Y85236
X69850Y86110
X73630Y85236
X75440Y81790
X75440Y77470
X75440Y73150
X73630Y69704
X69850Y68830
X66070Y69704
X64260Y73150
X64260Y77470
X87630Y80010
X91440Y80010
X91440Y69850
X87630Y69850
X49911Y30480
X47879Y30480
X46990Y50800
T02
X42545Y46863
X41529Y49657
X38735Y46863
X33655Y50292
X31623Y55753
X29210Y56896
X30226Y59436
X28067Y61087
X30226Y64643
X36830Y71120
X31750Y73660
X36830Y76200
X25400Y74549
X6350Y45466
X25400Y16713
X25400Y12700
X25400Y8687
X29972Y14859
X35560Y16713
X35560Y12700
X35560Y8687
X41148Y10668
X41148Y6223
X45720Y8687
X45720Y12700
X45720Y16713
X50292Y14859
X55880Y16713
X55880Y12700
X55880Y8687
X66040Y8687
X66040Y12700
X66040Y16713
X70612Y14859
X80010Y16713
X80010Y12700
X80010Y8687
X71247Y29718
X72517Y33909
X76327Y32766
X78740Y31623
X78740Y38100
X76200Y38100
X73660Y38100
X71120Y38100
X68580Y38100
X66040Y38100
X63500Y38100
X60960Y38100
X56388Y42291
X55245Y38481
X51689Y34925
X47879Y35560
X46736Y39370
X41021Y37465
X55245Y22352
X60960Y45720
X63500Y45720
X66040Y45720
X68580Y45720
X71120Y45720
X73660Y45720
X76200Y45720
X78740Y45720
X82550Y45847
X83439Y42799
X85344Y48641
X87249Y50546
X90170Y49530
X95377Y44450
X90170Y56515
X80264Y62738
X80264Y65405
X86106Y78105
X91567Y77470
X80645Y89408
X64643Y89535
X86995Y31242
T03
X15240Y43180
X12700Y43180
X10160Y43180
X7620Y29210
X7620Y25710
T04
X7500Y7500
X7500Y92500
X92500Y92500
X92500Y7500
T05
X12700Y58166
M30
