%
M48
M72
T01C0.2000
T02C1.0160
T03C1.1176
%
T01
X105367Y38692
X107907Y38692
X121877Y38692
X124417Y38692
X138387Y38692
X140927Y38692
T02
X7577Y7577
X10117Y7577
X12657Y7577
X15197Y7577
X17737Y7577
X20277Y7577
X22817Y7577
X25357Y7577
X27897Y7577
X30437Y7577
X30437Y22817
X27897Y22817
X25357Y22817
X22817Y22817
X20277Y22817
X17737Y22817
X15197Y22817
X12657Y22817
X10117Y22817
X7577Y22817
X10117Y53297
X10117Y53297
X12657Y53297
X12657Y53297
X15197Y53297
X15197Y53297
X17737Y53297
X17737Y53297
X20277Y53297
X20277Y53297
X22817Y53297
X22817Y53297
X25357Y53297
X25357Y53297
X36787Y53297
X36787Y53297
X39327Y53297
X39327Y53297
X41867Y53297
X41867Y53297
X44407Y53297
X44407Y53297
X46947Y53297
X46947Y53297
X49487Y53297
X49487Y53297
X52027Y53297
X52027Y53297
X63457Y53297
X63457Y53297
X65997Y53297
X65997Y53297
X68537Y53297
X68537Y53297
X71077Y53297
X71077Y53297
X73617Y53297
X73617Y53297
X76157Y53297
X76157Y53297
X78697Y53297
X78697Y53297
X89746Y52154
X92286Y52154
X94826Y52154
X97366Y52154
X99906Y52154
X102446Y52154
X104986Y52154
X107526Y52154
X110066Y52154
X112606Y52154
X121496Y52154
X124036Y52154
X126576Y52154
X129116Y52154
X131656Y52154
X134196Y52154
X136736Y52154
X139276Y52154
X141816Y52154
X144356Y52154
X144356Y69934
X141816Y69934
X139276Y69934
X136736Y69934
X134196Y69934
X131656Y69934
X129116Y69934
X126576Y69934
X124036Y69934
X121496Y69934
X112606Y69934
X110066Y69934
X107526Y69934
X104986Y69934
X102446Y69934
X99906Y69934
X97366Y69934
X94826Y69934
X92286Y69934
X89746Y69934
X78697Y68537
X78697Y68537
X76157Y68537
X76157Y68537
X73617Y68537
X73617Y68537
X71077Y68537
X71077Y68537
X68537Y68537
X68537Y68537
X65997Y68537
X65997Y68537
X63457Y68537
X63457Y68537
X52027Y68537
X52027Y68537
X49487Y68537
X49487Y68537
X46947Y68537
X46947Y68537
X44407Y68537
X44407Y68537
X41867Y68537
X41867Y68537
X39327Y68537
X39327Y68537
X36787Y68537
X36787Y68537
X25357Y68537
X25357Y68537
X22817Y68537
X22817Y68537
X20277Y68537
X20277Y68537
X17737Y68537
X17737Y68537
X15197Y68537
X15197Y68537
X12657Y68537
X12657Y68537
X10117Y68537
X10117Y68537
X104097Y33612
X106637Y33612
X109177Y33612
X120607Y33612
X123147Y33612
X125687Y33612
X137117Y33612
X139657Y33612
X142197Y33612
X140927Y22817
X138387Y22817
X135847Y22817
X133307Y22817
X130767Y22817
X128227Y22817
X125687Y22817
X123147Y22817
X120607Y22817
X143467Y22817
X143467Y7577
X140927Y7577
X138387Y7577
X135847Y7577
X133307Y7577
X130767Y7577
X128227Y7577
X125687Y7577
X123147Y7577
X120607Y7577
T03
X110527Y7577
X107987Y7577
X105447Y7577
X102907Y7577
X100367Y7577
X97827Y7577
X95287Y7577
X92747Y7577
X83857Y7577
X81317Y7577
X78777Y7577
X76237Y7577
X73697Y7577
X71157Y7577
X68617Y7577
X66077Y7577
X57187Y7577
X54647Y7577
X52107Y7577
X49567Y7577
X47027Y7577
X44487Y7577
X41947Y7577
X39407Y7577
X39407Y22817
X41947Y22817
X44487Y22817
X47027Y22817
X49567Y22817
X52107Y22817
X54647Y22817
X57187Y22817
X66077Y22817
X68617Y22817
X71157Y22817
X73697Y22817
X76237Y22817
X78777Y22817
X81317Y22817
X83857Y22817
X92747Y22817
X95287Y22817
X97827Y22817
X100367Y22817
X102907Y22817
X105447Y22817
X107987Y22817
X110527Y22817
X90381Y34755
X90381Y37295
X90381Y39835
X90381Y42375
X75141Y42375
X75141Y39835
X75141Y37295
X75141Y34755
X62441Y34755
X62441Y37295
X62441Y39835
X62441Y42375
X47201Y42375
X47201Y39835
X47201Y37295
X47201Y34755
X31961Y34755
X31961Y37295
X31961Y39835
X31961Y42375
X16721Y42375
X16721Y39835
X16721Y37295
X16721Y34755
M30
