%
M48
M72
T01C0.2000
T02C1.0160
T03C1.1000
T04C1.1176
%
T01
X138430Y38735
X140970Y38735
T02
X7620Y7620
X10160Y7620
X12700Y7620
X15240Y7620
X17780Y7620
X20320Y7620
X22860Y7620
X25400Y7620
X27940Y7620
X30480Y7620
X30480Y22860
X27940Y22860
X25400Y22860
X22860Y22860
X20320Y22860
X17780Y22860
X15240Y22860
X12700Y22860
X10160Y22860
X7620Y22860
X10160Y53340
X10160Y53340
X12700Y53340
X12700Y53340
X15240Y53340
X15240Y53340
X17780Y53340
X17780Y53340
X20320Y53340
X20320Y53340
X22860Y53340
X22860Y53340
X25400Y53340
X25400Y53340
X36830Y53340
X36830Y53340
X39370Y53340
X39370Y53340
X41910Y53340
X41910Y53340
X44450Y53340
X44450Y53340
X46990Y53340
X46990Y53340
X49530Y53340
X49530Y53340
X52070Y53340
X52070Y53340
X52070Y68580
X52070Y68580
X49530Y68580
X49530Y68580
X46990Y68580
X46990Y68580
X44450Y68580
X44450Y68580
X41910Y68580
X41910Y68580
X39370Y68580
X39370Y68580
X36830Y68580
X36830Y68580
X25400Y68580
X25400Y68580
X22860Y68580
X22860Y68580
X20320Y68580
X20320Y68580
X17780Y68580
X17780Y68580
X15240Y68580
X15240Y68580
X12700Y68580
X12700Y68580
X10160Y68580
X10160Y68580
X104140Y33655
X106680Y33655
X109220Y33655
X120650Y33655
X123190Y33655
X125730Y33655
X137160Y33655
X139700Y33655
X142240Y33655
X140970Y22860
X138430Y22860
X135890Y22860
X133350Y22860
X130810Y22860
X128270Y22860
X125730Y22860
X123190Y22860
X120650Y22860
X143510Y22860
X143510Y7620
X140970Y7620
X138430Y7620
X135890Y7620
X133350Y7620
X130810Y7620
X128270Y7620
X125730Y7620
X123190Y7620
X120650Y7620
T03
X111760Y50800
X109220Y50800
X96520Y50800
X93980Y50800
X81280Y53340
X78740Y53340
X68580Y53340
X66040Y53340
X66040Y68580
X68580Y68580
X78740Y68580
X81280Y68580
X93980Y68580
X96520Y68580
X109220Y68580
X111760Y68580
X124460Y68580
X127000Y68580
X137160Y68580
X139700Y68580
X139700Y53340
X137160Y53340
X127000Y53340
X124460Y53340
T04
X94424Y42418
X94424Y39878
X94424Y37338
X94424Y34798
X79184Y34798
X79184Y37338
X79184Y39878
X79184Y42418
X69484Y42418
X69484Y39878
X69484Y37338
X69484Y34798
X54244Y34798
X54244Y37338
X54244Y39878
X54244Y42418
X44004Y42418
X44004Y39878
X44004Y37338
X44004Y34798
X28764Y34798
X28764Y37338
X28764Y39878
X28764Y42418
X17366Y44238
X14826Y44238
X12286Y44238
X9746Y44238
X39450Y22860
X41990Y22860
X44530Y22860
X47070Y22860
X49610Y22860
X52150Y22860
X54690Y22860
X57230Y22860
X66120Y22860
X68660Y22860
X71200Y22860
X73740Y22860
X76280Y22860
X78820Y22860
X81360Y22860
X83900Y22860
X92790Y22860
X95330Y22860
X97870Y22860
X100410Y22860
X102950Y22860
X105490Y22860
X108030Y22860
X110570Y22860
X110570Y7620
X108030Y7620
X105490Y7620
X102950Y7620
X100410Y7620
X97870Y7620
X95330Y7620
X92790Y7620
X83900Y7620
X81360Y7620
X78820Y7620
X76280Y7620
X73740Y7620
X71200Y7620
X68660Y7620
X66120Y7620
X57230Y7620
X54690Y7620
X52150Y7620
X49610Y7620
X47070Y7620
X44530Y7620
X41990Y7620
X39450Y7620
M30
