%
M48
M72
T01C0.8000
T02C0.8128
T03C0.8400
T04C1.0160
T05C1.2000
T06C3.0000
%
T01
X12700Y10160
X17780Y10160
X16510Y21844
X16510Y24384
X16510Y26924
X16510Y29464
X8890Y29464
X8890Y26924
X8890Y24384
X8890Y21844
X27178Y37592
X27178Y47752
X30988Y53594
X31242Y59182
X41084Y58594
X41084Y55038
X21082Y59182
X20828Y53594
X30520Y16086
X30520Y9786
X35520Y13086
T02
X19050Y38608
X19050Y41148
X19050Y43688
T03
X19558Y32766
X20574Y30226
X19558Y26162
X19558Y21590
X6350Y43434
T04
X33274Y44196
X38354Y41656
X38354Y46736
T05
X30910Y69040
X27410Y69040
T06
X5000Y5000
X44000Y5000
X44000Y70000
X5000Y70000
M30
