%
M48
M72
T01C0.6000
T02C0.8000
T03C1.2000
T04C3.0000
%
T01
X12700Y10160
X17780Y10160
X27178Y37592
X27178Y47752
X31242Y59182
X41084Y58594
X41084Y55038
X21082Y59182
X19050Y43688
X19050Y41148
X19050Y38608
T02
X16510Y29464
X16510Y26924
X16510Y24384
X16510Y21844
X8890Y21844
X8890Y24384
X8890Y26924
X8890Y29464
X21463Y53594
X30353Y53594
X33274Y44196
X30099Y41656
X38354Y41656
X38354Y46736
X30520Y16086
X30520Y9786
X35520Y13086
T03
X30910Y69040
X27410Y69040
T04
X5000Y5000
X44000Y5000
X44000Y70000
X5000Y70000
M30
