%
M48
M72
T01C0.4000
T02C0.6000
T03C0.8000
T04C0.8128
T05C1.0000
T06C3.2000
%
T01
X19685Y17145
X22225Y17145
T02
X27305Y13970
X27305Y8890
X24765Y22225
X17780Y22225
X17780Y32385
X24765Y32385
X60325Y30480
X69850Y36830
X60325Y40640
X80010Y36830
T03
X80010Y42545
X77470Y42545
X74930Y42545
X74295Y30480
X74295Y27940
X74295Y25400
X74295Y22860
X69850Y22860
X66675Y22860
X66675Y20320
X63500Y20320
X66675Y17780
X66675Y15240
X66675Y12700
X66675Y10160
X66675Y7620
X62230Y7620
X74295Y7620
X74295Y10160
X74295Y12700
X74295Y15240
X74295Y17780
X74295Y20320
X81915Y20320
X84455Y20320
X84455Y17780
X81915Y17780
X81915Y15240
X84455Y15240
X84455Y12700
X81915Y12700
X81915Y10160
X84455Y10160
X84455Y22860
X81915Y22860
X81915Y25400
X84455Y25400
X84455Y27940
X81915Y27940
X66675Y27940
X66675Y25400
X66675Y30480
X44450Y34290
X35179Y14478
X40640Y6350
X43180Y6350
X57150Y13970
T04
X48260Y19050
X48260Y21590
X48260Y24130
X48260Y26670
X48260Y29210
X48260Y31750
X48260Y34290
X40640Y34290
X40640Y31750
X40640Y29210
X40640Y26670
X40640Y24130
X40640Y21590
X40640Y19050
T05
X13970Y12660
X13970Y7660
T06
X5000Y5000
X5000Y45000
X95000Y45000
X95000Y5000
M30
