%
M48
M72
T01C0.6000
T02C0.8000
T03C0.8128
T04C3.0000
%
T01
X21082Y13970
X24638Y13970
X5080Y24130
X5080Y31750
T02
X3810Y38100
X3810Y40640
X20193Y47371
X24765Y41275
X25654Y36449
X22479Y36449
X20574Y34671
X23876Y28575
X24892Y21717
X40259Y31623
X56515Y20574
X59690Y3810
X49530Y3810
X46990Y3810
X44450Y3810
X38100Y3810
X29210Y3810
X26670Y3810
X62103Y38608
X61849Y42418
X80772Y34544
X82804Y27940
X82296Y25400
X80518Y18796
X93980Y17780
X93980Y20320
X93980Y15240
X93980Y12700
X93980Y25400
X93980Y27940
X93980Y30480
X93980Y35560
X93980Y38100
X93980Y43180
X93980Y45720
X93980Y48260
X93980Y50800
X93980Y55880
X93980Y58420
X93980Y60960
X86360Y69850
X83820Y69850
X73660Y69850
X71120Y69850
X68580Y69850
X66040Y69850
X55880Y69850
X53340Y69850
X32639Y55499
X38227Y46863
X82550Y50546
T03
X81280Y48260
X78740Y48260
X76200Y48260
X73660Y48260
X71120Y48260
X68580Y48260
X68580Y54610
X71120Y54610
X73660Y54610
X76200Y54610
X78740Y54610
X81280Y54610
X83820Y54610
X83820Y48260
X83820Y40640
X81280Y40640
X78740Y40640
X76200Y40640
X73660Y40640
X71120Y40640
X68580Y40640
X58420Y36830
X55880Y36830
X53340Y36830
X50800Y36830
X48260Y36830
X45720Y36830
X43180Y36830
X43180Y44450
X45720Y44450
X48260Y44450
X50800Y44450
X53340Y44450
X55880Y44450
X58420Y44450
X57150Y55880
X59690Y55880
X54610Y55880
X52070Y55880
X49530Y55880
X46990Y55880
X44450Y55880
X44450Y63500
X46990Y63500
X49530Y63500
X52070Y63500
X54610Y63500
X57150Y63500
X59690Y63500
X68580Y62230
X71120Y62230
X73660Y62230
X76200Y62230
X78740Y62230
X81280Y62230
X83820Y62230
X83820Y30480
X81280Y30480
X78740Y30480
X76200Y30480
X73660Y30480
X71120Y30480
X68580Y30480
X68580Y22860
X71120Y22860
X73660Y22860
X76200Y22860
X78740Y22860
X81280Y22860
X83820Y22860
X83820Y15240
X81280Y15240
X78740Y15240
X76200Y15240
X73660Y15240
X71120Y15240
X68580Y15240
X68580Y7620
X71120Y7620
X73660Y7620
X76200Y7620
X78740Y7620
X81280Y7620
X83820Y7620
X58420Y17780
X55880Y17780
X53340Y17780
X50800Y17780
X48260Y17780
X45720Y17780
X43180Y17780
X43180Y25400
X45720Y25400
X48260Y25400
X50800Y25400
X53340Y25400
X55880Y25400
X58420Y25400
X29210Y55880
X26670Y55880
X24130Y55880
X21590Y55880
X19050Y55880
X16510Y55880
X13970Y55880
X13970Y63500
X16510Y63500
X19050Y63500
X21590Y63500
X24130Y63500
X26670Y63500
X29210Y63500
T04
X5000Y5000
X5000Y70000
X95000Y70000
X95000Y5000
M30
